<?xml version="1.0" standalone="no"?>
<!DOCTYPE svg PUBLIC "-//W3C//DTD SVG 20010904//EN"
 "http://www.w3.org/TR/2001/REC-SVG-20010904/DTD/svg10.dtd">
<svg version="1.0" xmlns="http://www.w3.org/2000/svg"
 width="1000.000000pt" height="1000.000000pt" viewBox="0 0 1000.000000 1000.000000"
 preserveAspectRatio="xMidYMid meet">
<metadata>
Created by potrace 1.14, written by Peter Selinger 2001-2017
</metadata>
<g transform="translate(0.000000,1000.000000) scale(0.100000,-0.100000)"
fill="#000000" stroke="none">
<path d="M4710 9993 c-110 -9 -289 -26 -313 -29 -130 -16 -326 -49 -447 -76
-52 -11 -111 -24 -130 -28 -130 -28 -406 -115 -600 -188 -199 -76 -229 -89
-443 -195 -749 -369 -1395 -926 -1880 -1619 -164 -236 -369 -598 -467 -828
-17 -41 -40 -93 -50 -115 -109 -242 -262 -772 -310 -1075 -5 -36 -12 -76 -14
-90 -4 -22 -17 -124 -30 -235 -21 -172 -29 -710 -13 -895 74 -879 360 -1700
839 -2413 62 -92 252 -347 285 -382 10 -11 29 -33 41 -50 95 -123 411 -440
567 -570 33 -28 69 -58 80 -69 48 -44 309 -235 424 -311 655 -429 1410 -705
2161 -790 30 -3 69 -8 85 -10 204 -26 850 -27 1005 0 14 2 50 6 80 9 86 7 263
35 400 62 793 159 1559 520 2179 1028 240 196 485 438 671 663 127 152 139
167 238 306 302 422 556 933 701 1407 18 58 36 116 41 130 45 129 132 568 155
780 3 30 8 69 10 85 27 191 27 747 0 1010 -12 120 -37 298 -51 370 -3 11 -7
36 -10 55 -3 19 -21 101 -39 182 -228 996 -751 1892 -1511 2588 -75 68 -85 77
-174 150 -30 25 -57 47 -60 51 -3 3 -59 46 -125 95 -735 551 -1592 885 -2505
979 -30 3 -77 8 -105 11 -55 6 -629 12 -685 7z"/>
</g>
</svg>
