<svg xmlns="http://www.w3.org/2000/svg" xmlns:xlink="http://www.w3.org/1999/xlink" viewBox="0 0 46.095 64.095" fill="#fff" fill-rule="evenodd" stroke="#000" stroke-linecap="round" stroke-linejoin="round"><use xlink:href="#A" x=".048" y=".048"/><symbol id="A" overflow="visible"><path d="M22.743.002S3.89-.618 0 20.297v14.255s.16 1.525 4.45 4.62 15.387 11.806 18.293 11.806S36.75 42.26 41.037 39.163s4.45-4.62 4.45-4.62V20.297C41.597-.618 22.743.002 22.743.002zm12.9 28.05h-25.8v-7.766c2.6-10.374 12.9-10.518 12.9-10.518s10.3.143 12.9 10.53zm-12.9 26.134s-2.922-.286-5.2-1.874L0 39.83v21.566s.13 2.5 2.892 2.5h39.7c2.763 0 2.892-2.5 2.892-2.5V39.83l-17.54 12.482c-2.287 1.588-5.2 1.874-5.2 1.874z" stroke="#fff" fill="#336" fill-rule="nonzero" stroke-width=".095"/></symbol></svg>